<svg width="173" height="24" viewBox="0 0 173 24" fill="none" xmlns="http://www.w3.org/2000/svg">
<path d="M4.47754 14.9219L6.82227 7.04688H9.10547L5.63965 17H4.13574L4.47754 14.9219ZM2.31738 7.04688L4.65527 14.9219L5.01074 17H3.49316L0.0478516 7.04688H2.31738ZM14.3158 7.04688V17H12.2719V7.04688H14.3158ZM25.0154 15.4004V17H19.7176V15.4004H25.0154ZM20.3875 7.04688V17H18.3367V7.04688H20.3875ZM24.325 11.1006V12.6592H19.7176V11.1006H24.325ZM25.0086 7.04688V8.65332H19.7176V7.04688H25.0086ZM30.7111 15.4209L32.6936 7.04688H33.801L34.0539 8.44141L31.9416 17H30.7521L30.7111 15.4209ZM29.6926 7.04688L31.3332 15.4209L31.1965 17H29.8703L27.6623 7.04688H29.6926ZM35.7971 15.3867L37.4172 7.04688H39.4475L37.2463 17H35.9201L35.7971 15.3867ZM34.423 7.04688L36.4191 15.4551L36.3645 17H35.175L33.049 8.43457L33.3225 7.04688H34.423ZM52.2949 8.74902L49.5879 17H47.4072L51.1055 7.04688H52.4932L52.2949 8.74902ZM54.5439 17L51.8301 8.74902L51.6113 7.04688H53.0127L56.7314 17H54.5439ZM54.4209 13.2949V14.9014H49.1641V13.2949H54.4209ZM66.1527 15.4004V17H61.142V15.4004H66.1527ZM61.8051 7.04688V17H59.7543V7.04688H61.8051ZM75.827 15.4004V17H70.8162V15.4004H75.827ZM71.4793 7.04688V17H69.4285V7.04688H71.4793ZM88.565 13.4521H86.0289V11.8525H88.565C88.957 11.8525 89.276 11.7887 89.5221 11.6611C89.7682 11.529 89.9482 11.3467 90.0621 11.1143C90.176 10.8818 90.233 10.6198 90.233 10.3281C90.233 10.0319 90.176 9.75618 90.0621 9.50098C89.9482 9.24577 89.7682 9.04069 89.5221 8.88574C89.276 8.73079 88.957 8.65332 88.565 8.65332H86.7398V17H84.6891V7.04688H88.565C89.3443 7.04688 90.012 7.18815 90.568 7.4707C91.1285 7.7487 91.5569 8.13379 91.8531 8.62598C92.1494 9.11816 92.2975 9.68099 92.2975 10.3145C92.2975 10.957 92.1494 11.513 91.8531 11.9824C91.5569 12.4518 91.1285 12.8141 90.568 13.0693C90.012 13.3245 89.3443 13.4521 88.565 13.4521ZM103.988 11.791V12.2627C103.988 13.0192 103.886 13.6982 103.681 14.2998C103.476 14.9014 103.186 15.4141 102.812 15.8379C102.439 16.2572 101.992 16.5785 101.473 16.8018C100.958 17.0251 100.386 17.1367 99.7568 17.1367C99.1325 17.1367 98.5605 17.0251 98.041 16.8018C97.526 16.5785 97.0794 16.2572 96.7012 15.8379C96.3229 15.4141 96.029 14.9014 95.8193 14.2998C95.6143 13.6982 95.5117 13.0192 95.5117 12.2627V11.791C95.5117 11.0299 95.6143 10.3509 95.8193 9.75391C96.0244 9.15234 96.3138 8.63965 96.6875 8.21582C97.0658 7.79199 97.5124 7.46842 98.0273 7.24512C98.5469 7.02181 99.1188 6.91016 99.7432 6.91016C100.372 6.91016 100.944 7.02181 101.459 7.24512C101.979 7.46842 102.425 7.79199 102.799 8.21582C103.177 8.63965 103.469 9.15234 103.674 9.75391C103.883 10.3509 103.988 11.0299 103.988 11.791ZM101.917 12.2627V11.7773C101.917 11.2487 101.869 10.7839 101.773 10.3828C101.678 9.98177 101.536 9.64453 101.35 9.37109C101.163 9.09766 100.935 8.89258 100.666 8.75586C100.397 8.61458 100.09 8.54395 99.7432 8.54395C99.3968 8.54395 99.0892 8.61458 98.8203 8.75586C98.556 8.89258 98.3304 9.09766 98.1436 9.37109C97.9613 9.64453 97.8223 9.98177 97.7266 10.3828C97.6309 10.7839 97.583 11.2487 97.583 11.7773V12.2627C97.583 12.7868 97.6309 13.2516 97.7266 13.6572C97.8223 14.0583 97.9635 14.3978 98.1504 14.6758C98.3372 14.9492 98.5651 15.1566 98.834 15.2979C99.1029 15.4391 99.4105 15.5098 99.7568 15.5098C100.103 15.5098 100.411 15.4391 100.68 15.2979C100.949 15.1566 101.174 14.9492 101.356 14.6758C101.539 14.3978 101.678 14.0583 101.773 13.6572C101.869 13.2516 101.917 12.7868 101.917 12.2627ZM112.746 14.3955C112.746 14.2178 112.719 14.0583 112.664 13.917C112.614 13.7712 112.519 13.639 112.377 13.5205C112.236 13.3975 112.038 13.2767 111.783 13.1582C111.527 13.0397 111.197 12.9167 110.791 12.7891C110.34 12.6432 109.912 12.4792 109.506 12.2969C109.105 12.1146 108.75 11.9027 108.44 11.6611C108.135 11.415 107.893 11.1302 107.715 10.8066C107.542 10.4831 107.455 10.1071 107.455 9.67871C107.455 9.264 107.547 8.88802 107.729 8.55078C107.911 8.20898 108.166 7.91732 108.495 7.67578C108.823 7.42969 109.21 7.24056 109.657 7.1084C110.108 6.97624 110.602 6.91016 111.14 6.91016C111.874 6.91016 112.514 7.04232 113.061 7.30664C113.608 7.57096 114.032 7.93327 114.332 8.39355C114.638 8.85384 114.79 9.38021 114.79 9.97266H112.753C112.753 9.68099 112.692 9.42578 112.569 9.20703C112.45 8.98372 112.268 8.80827 112.022 8.68066C111.78 8.55306 111.475 8.48926 111.106 8.48926C110.75 8.48926 110.454 8.54395 110.217 8.65332C109.98 8.75814 109.802 8.90169 109.684 9.08398C109.565 9.26172 109.506 9.46224 109.506 9.68555C109.506 9.85417 109.547 10.0068 109.629 10.1436C109.716 10.2803 109.843 10.4079 110.012 10.5264C110.181 10.6449 110.388 10.7565 110.634 10.8613C110.88 10.9661 111.165 11.0687 111.489 11.1689C112.031 11.333 112.507 11.5176 112.917 11.7227C113.332 11.9277 113.678 12.1579 113.956 12.4131C114.234 12.6683 114.444 12.9577 114.585 13.2812C114.727 13.6048 114.797 13.9717 114.797 14.3818C114.797 14.8148 114.713 15.2021 114.544 15.5439C114.376 15.8857 114.132 16.1751 113.813 16.4121C113.494 16.6491 113.113 16.8291 112.671 16.9521C112.229 17.0752 111.735 17.1367 111.188 17.1367C110.696 17.1367 110.21 17.0729 109.732 16.9453C109.253 16.8132 108.818 16.6149 108.426 16.3506C108.039 16.0863 107.729 15.749 107.496 15.3389C107.264 14.9287 107.148 14.4434 107.148 13.8828H109.205C109.205 14.1927 109.253 14.4548 109.349 14.6689C109.445 14.8831 109.579 15.0563 109.752 15.1885C109.93 15.3206 110.14 15.4163 110.381 15.4756C110.627 15.5348 110.896 15.5645 111.188 15.5645C111.543 15.5645 111.835 15.5143 112.063 15.4141C112.295 15.3138 112.466 15.1748 112.576 14.9971C112.69 14.8193 112.746 14.6188 112.746 14.3955ZM122.742 7.04688V17H120.698V7.04688H122.742ZM125.804 7.04688V8.65332H117.683V7.04688H125.804ZM134.146 14.3955C134.146 14.2178 134.118 14.0583 134.064 13.917C134.014 13.7712 133.918 13.639 133.777 13.5205C133.635 13.3975 133.437 13.2767 133.182 13.1582C132.927 13.0397 132.596 12.9167 132.191 12.7891C131.739 12.6432 131.311 12.4792 130.905 12.2969C130.504 12.1146 130.149 11.9027 129.839 11.6611C129.534 11.415 129.292 11.1302 129.114 10.8066C128.941 10.4831 128.855 10.1071 128.855 9.67871C128.855 9.264 128.946 8.88802 129.128 8.55078C129.31 8.20898 129.566 7.91732 129.894 7.67578C130.222 7.42969 130.609 7.24056 131.056 7.1084C131.507 6.97624 132.002 6.91016 132.539 6.91016C133.273 6.91016 133.913 7.04232 134.46 7.30664C135.007 7.57096 135.431 7.93327 135.732 8.39355C136.037 8.85384 136.19 9.38021 136.19 9.97266H134.153C134.153 9.68099 134.091 9.42578 133.968 9.20703C133.849 8.98372 133.667 8.80827 133.421 8.68066C133.18 8.55306 132.874 8.48926 132.505 8.48926C132.15 8.48926 131.853 8.54395 131.616 8.65332C131.379 8.75814 131.202 8.90169 131.083 9.08398C130.965 9.26172 130.905 9.46224 130.905 9.68555C130.905 9.85417 130.946 10.0068 131.029 10.1436C131.115 10.2803 131.243 10.4079 131.411 10.5264C131.58 10.6449 131.787 10.7565 132.033 10.8613C132.279 10.9661 132.564 11.0687 132.888 11.1689C133.43 11.333 133.906 11.5176 134.317 11.7227C134.731 11.9277 135.078 12.1579 135.356 12.4131C135.634 12.6683 135.843 12.9577 135.985 13.2812C136.126 13.6048 136.196 13.9717 136.196 14.3818C136.196 14.8148 136.112 15.2021 135.944 15.5439C135.775 15.8857 135.531 16.1751 135.212 16.4121C134.893 16.6491 134.513 16.8291 134.071 16.9521C133.628 17.0752 133.134 17.1367 132.587 17.1367C132.095 17.1367 131.61 17.0729 131.131 16.9453C130.653 16.8132 130.217 16.6149 129.825 16.3506C129.438 16.0863 129.128 15.749 128.896 15.3389C128.663 14.9287 128.547 14.4434 128.547 13.8828H130.605C130.605 14.1927 130.653 14.4548 130.748 14.6689C130.844 14.8831 130.978 15.0563 131.152 15.1885C131.329 15.3206 131.539 15.4163 131.78 15.4756C132.027 15.5348 132.295 15.5645 132.587 15.5645C132.943 15.5645 133.234 15.5143 133.462 15.4141C133.695 15.3138 133.865 15.1748 133.975 14.9971C134.089 14.8193 134.146 14.6188 134.146 14.3955Z" fill="#475F45"/>
<path d="M154 12H168" stroke="#475F45" stroke-width="2" stroke-linecap="round" stroke-linejoin="round"/>
<path d="M161 5L168 12L161 19" stroke="#475F45" stroke-width="2" stroke-linecap="round" stroke-linejoin="round"/>
</svg>
